G04*
G04 #@! TF.GenerationSoftware,Altium Limited,Altium Designer,26.5.0 (11)*
G04*
G04 Layer_Physical_Order=1*
G04 Layer_Color=255*
G04 Board_Origin=0|0*
%FSLAX44Y44*%
%MOMM*%
G71*
G04*
G04 #@! TF.SameCoordinates,7E49C3A9-1511-4E69-90EF-6E4C821B1FBF*
G04*
G04*
G04 #@! TF.FilePolarity,Positive*
G04*
G01*
G75*
%ADD15R,1.0000X0.7000*%
%ADD16R,0.7000X1.0000*%
%ADD17C,0.3000*%
%ADD18C,1.7000*%
%ADD19C,5.0000*%
G36*
X192780Y118250D02*
X192750Y118535D01*
X192661Y118790D01*
X192511Y119015D01*
X192300Y119210D01*
X192031Y119375D01*
X191700Y119510D01*
X191311Y119615D01*
X190861Y119690D01*
X190350Y119735D01*
X189781Y119750D01*
Y122750D01*
X190350Y122765D01*
X190861Y122810D01*
X191311Y122885D01*
X191700Y122990D01*
X192031Y123125D01*
X192300Y123290D01*
X192511Y123485D01*
X192661Y123710D01*
X192750Y123965D01*
X192780Y124250D01*
Y118250D01*
D02*
G37*
G36*
X144749Y123965D02*
X144839Y123710D01*
X144990Y123485D01*
X145200Y123290D01*
X145470Y123125D01*
X145800Y122990D01*
X146189Y122885D01*
X146639Y122810D01*
X147149Y122765D01*
X147719Y122750D01*
Y119750D01*
X147149Y119735D01*
X146639Y119690D01*
X146189Y119615D01*
X145800Y119510D01*
X145470Y119375D01*
X145200Y119210D01*
X144990Y119015D01*
X144839Y118790D01*
X144749Y118535D01*
X144719Y118250D01*
Y124250D01*
X144749Y123965D01*
D02*
G37*
G36*
X143965Y116250D02*
X143710Y116160D01*
X143485Y116010D01*
X143290Y115800D01*
X143125Y115530D01*
X142990Y115200D01*
X142885Y114810D01*
X142810Y114360D01*
X142765Y113850D01*
X142750Y113280D01*
X139750D01*
X139735Y113850D01*
X139690Y114360D01*
X139615Y114810D01*
X139510Y115200D01*
X139375Y115530D01*
X139210Y115800D01*
X139015Y116010D01*
X138790Y116160D01*
X138535Y116250D01*
X138250Y116280D01*
X144250D01*
X143965Y116250D01*
D02*
G37*
G36*
X128965D02*
X128710Y116160D01*
X128485Y116010D01*
X128290Y115800D01*
X128125Y115530D01*
X127990Y115200D01*
X127885Y114810D01*
X127810Y114360D01*
X127765Y113850D01*
X127750Y113280D01*
X124750D01*
X124735Y113850D01*
X124690Y114360D01*
X124615Y114810D01*
X124510Y115200D01*
X124375Y115530D01*
X124210Y115800D01*
X124015Y116010D01*
X123790Y116160D01*
X123535Y116250D01*
X123250Y116280D01*
X129250D01*
X128965Y116250D01*
D02*
G37*
G36*
X127795Y104296D02*
X127928Y103649D01*
X128151Y102976D01*
X128462Y102276D01*
X128862Y101550D01*
X129352Y100797D01*
X129930Y100017D01*
X130598Y99211D01*
X132200Y97520D01*
X120300Y97520D01*
X121145Y98379D01*
X122570Y100017D01*
X123148Y100797D01*
X123638Y101550D01*
X124038Y102276D01*
X124349Y102976D01*
X124572Y103649D01*
X124705Y104296D01*
X124750Y104916D01*
X127750D01*
X127795Y104296D01*
D02*
G37*
G36*
X150295Y53879D02*
X150431Y53229D01*
X150657Y52556D01*
X150973Y51863D01*
X151380Y51147D01*
X151877Y50409D01*
X152464Y49650D01*
X153142Y48870D01*
X154769Y47243D01*
X142874Y46893D01*
X143706Y47787D01*
X145106Y49481D01*
X145675Y50280D01*
X146156Y51048D01*
X146550Y51785D01*
X146856Y52491D01*
X147075Y53165D01*
X147206Y53807D01*
X147250Y54418D01*
X150250Y54508D01*
X150295Y53879D01*
D02*
G37*
G36*
X213965Y116250D02*
X213710Y116160D01*
X213485Y116010D01*
X213290Y115800D01*
X213125Y115530D01*
X212990Y115200D01*
X212885Y114810D01*
X212810Y114360D01*
X212765Y113850D01*
X212750Y113280D01*
X209750D01*
X209735Y113850D01*
X209690Y114360D01*
X209615Y114810D01*
X209510Y115200D01*
X209375Y115530D01*
X209210Y115800D01*
X209015Y116010D01*
X208790Y116160D01*
X208535Y116250D01*
X208250Y116280D01*
X214250D01*
X213965Y116250D01*
D02*
G37*
G36*
X212794Y104296D02*
X212928Y103649D01*
X213151Y102976D01*
X213462Y102276D01*
X213862Y101550D01*
X214352Y100797D01*
X214930Y100017D01*
X215598Y99211D01*
X217200Y97520D01*
X205300D01*
X206145Y98379D01*
X207570Y100017D01*
X208148Y100797D01*
X208638Y101550D01*
X209038Y102276D01*
X209349Y102976D01*
X209572Y103649D01*
X209706Y104296D01*
X209750Y104916D01*
X212750D01*
X212794Y104296D01*
D02*
G37*
G36*
X233030Y88450D02*
X233001Y88735D01*
X232910Y88990D01*
X232761Y89215D01*
X232551Y89410D01*
X232281Y89575D01*
X231950Y89710D01*
X231560Y89815D01*
X231110Y89890D01*
X230600Y89935D01*
X230030Y89950D01*
Y92950D01*
X230600Y92965D01*
X231110Y93010D01*
X231560Y93085D01*
X231950Y93190D01*
X232281Y93325D01*
X232551Y93490D01*
X232761Y93685D01*
X232910Y93910D01*
X233001Y94165D01*
X233030Y94450D01*
Y88450D01*
D02*
G37*
G36*
X218179Y96554D02*
X219818Y95130D01*
X220597Y94552D01*
X221350Y94062D01*
X222077Y93662D01*
X222776Y93350D01*
X223450Y93128D01*
X224096Y92994D01*
X224717Y92950D01*
Y89950D01*
X224096Y89905D01*
X223450Y89772D01*
X222776Y89549D01*
X222077Y89238D01*
X221350Y88837D01*
X220597Y88348D01*
X219818Y87769D01*
X219012Y87102D01*
X217320Y85500D01*
Y97400D01*
X218179Y96554D01*
D02*
G37*
G36*
X240715Y72501D02*
X240460Y72410D01*
X240235Y72260D01*
X240040Y72050D01*
X239875Y71781D01*
X239740Y71451D01*
X239635Y71061D01*
X239560Y70610D01*
X239515Y70100D01*
X239500Y69531D01*
X236500D01*
X236485Y70100D01*
X236440Y70610D01*
X236365Y71061D01*
X236260Y71451D01*
X236125Y71781D01*
X235960Y72050D01*
X235765Y72260D01*
X235540Y72410D01*
X235285Y72501D01*
X235000Y72530D01*
X241000D01*
X240715Y72501D01*
D02*
G37*
G36*
X195888Y46160D02*
X197538Y44749D01*
X198322Y44177D01*
X199079Y43693D01*
X199809Y43298D01*
X200511Y42993D01*
X201186Y42775D01*
X201834Y42647D01*
X202454Y42607D01*
X202478Y39608D01*
X201858Y39558D01*
X201213Y39420D01*
X200541Y39192D01*
X199844Y38874D01*
X199121Y38468D01*
X198372Y37973D01*
X197597Y37388D01*
X196796Y36714D01*
X195117Y35099D01*
X195023Y46998D01*
X195888Y46160D01*
D02*
G37*
D15*
X238000Y76000D02*
D03*
Y91000D02*
D03*
D16*
X126250Y121250D02*
D03*
X141250D02*
D03*
X211250D02*
D03*
X196250D02*
D03*
D17*
X148750Y41249D02*
Y59250D01*
X141250Y66750D02*
X148750Y59250D01*
X220250Y41249D02*
X238000Y59000D01*
Y76000D01*
X189000Y41000D02*
X220250Y41249D01*
X141250Y66750D02*
Y121250D01*
X211250Y91450D02*
X237550D01*
X238000Y91000D01*
X211250Y91450D02*
Y121250D01*
X211250Y121250D01*
X126250Y91450D02*
Y121250D01*
X126250Y91450D02*
X126250Y91450D01*
X141250Y121250D02*
X196250D01*
X126250Y121250D02*
X126250Y121250D01*
D18*
X149000Y41000D02*
D03*
X189000D02*
D03*
X211250Y91450D02*
D03*
Y66050D02*
D03*
X126250Y91450D02*
D03*
Y66050D02*
D03*
X169000Y41249D02*
D03*
D19*
X281250Y78750D02*
D03*
X56250D02*
D03*
M02*
