G04*
G04 #@! TF.GenerationSoftware,Altium Limited,Altium Designer,26.5.0 (11)*
G04*
G04 Layer_Color=32896*
G04 Board_Origin=0|0*
%FSLAX44Y44*%
%MOMM*%
G71*
G04*
G04 #@! TF.SameCoordinates,7E49C3A9-1511-4E69-90EF-6E4C821B1FBF*
G04*
G04*
G04 #@! TF.FilePolarity,Positive*
G04*
G01*
G75*
%ADD10C,0.2000*%
G36*
X200688Y123066D02*
X200766Y122866D01*
X200955Y122489D01*
X201055Y122322D01*
X201154Y122156D01*
X201254Y122001D01*
X201354Y121867D01*
X201454Y121734D01*
X201543Y121623D01*
X201621Y121523D01*
X201698Y121446D01*
X201754Y121379D01*
X201798Y121334D01*
X201832Y121301D01*
X201843Y121290D01*
X202009Y121135D01*
X202165Y120990D01*
X202320Y120868D01*
X202475Y120746D01*
X202620Y120635D01*
X202764Y120546D01*
X203019Y120380D01*
X203130Y120313D01*
X203230Y120258D01*
X203319Y120213D01*
X203386Y120180D01*
X203452Y120147D01*
X203496Y120125D01*
X203519Y120113D01*
X203530D01*
Y117938D01*
X203263Y118049D01*
X203008Y118182D01*
X202764Y118315D01*
X202531Y118471D01*
X202309Y118615D01*
X202098Y118771D01*
X201898Y118915D01*
X201721Y119070D01*
X201554Y119203D01*
X201410Y119337D01*
X201288Y119447D01*
X201188Y119558D01*
X201099Y119636D01*
X201043Y119703D01*
X200999Y119747D01*
X200988Y119758D01*
Y110723D01*
X199023D01*
Y123277D01*
X200622D01*
X200688Y123066D01*
D02*
G37*
G36*
X219325Y110723D02*
X217094D01*
X213420Y123233D01*
X215629D01*
X218137Y113964D01*
X220735Y123233D01*
X222977D01*
X219325Y110723D01*
D02*
G37*
G36*
X213109Y121112D02*
X210056D01*
Y110723D01*
X207992D01*
Y121112D01*
X204951D01*
Y123233D01*
X213109D01*
Y121112D01*
D02*
G37*
G36*
X115895Y123066D02*
X115972Y122866D01*
X116161Y122489D01*
X116261Y122322D01*
X116361Y122156D01*
X116461Y122001D01*
X116561Y121867D01*
X116660Y121734D01*
X116749Y121623D01*
X116827Y121523D01*
X116905Y121446D01*
X116960Y121379D01*
X117005Y121334D01*
X117038Y121301D01*
X117049Y121290D01*
X117215Y121135D01*
X117371Y120990D01*
X117526Y120868D01*
X117682Y120746D01*
X117826Y120635D01*
X117970Y120546D01*
X118226Y120380D01*
X118337Y120313D01*
X118436Y120258D01*
X118525Y120213D01*
X118592Y120180D01*
X118659Y120147D01*
X118703Y120125D01*
X118725Y120113D01*
X118736D01*
Y117938D01*
X118470Y118049D01*
X118215Y118182D01*
X117970Y118315D01*
X117737Y118471D01*
X117515Y118615D01*
X117304Y118771D01*
X117105Y118915D01*
X116927Y119070D01*
X116760Y119203D01*
X116616Y119337D01*
X116494Y119447D01*
X116394Y119558D01*
X116305Y119636D01*
X116250Y119703D01*
X116205Y119747D01*
X116194Y119758D01*
Y110723D01*
X114230D01*
Y123277D01*
X115828D01*
X115895Y123066D01*
D02*
G37*
G36*
X136118Y110723D02*
X133887D01*
X130213Y123233D01*
X132422D01*
X134931Y113964D01*
X137528Y123233D01*
X139770D01*
X136118Y110723D01*
D02*
G37*
G36*
X129181D02*
X125063D01*
X124852Y110734D01*
X124641Y110756D01*
X124453Y110779D01*
X124264Y110801D01*
X124097Y110834D01*
X123942Y110867D01*
X123809Y110901D01*
X123676Y110923D01*
X123565Y110956D01*
X123476Y110990D01*
X123398Y111012D01*
X123331Y111034D01*
X123287Y111056D01*
X123265Y111067D01*
X123254D01*
X122965Y111212D01*
X122710Y111378D01*
X122477Y111556D01*
X122277Y111733D01*
X122122Y111877D01*
X122055Y111944D01*
X122000Y112011D01*
X121955Y112055D01*
X121922Y112088D01*
X121911Y112111D01*
X121900Y112122D01*
X121800Y112255D01*
X121700Y112399D01*
X121511Y112710D01*
X121356Y113032D01*
X121222Y113331D01*
X121167Y113476D01*
X121111Y113609D01*
X121067Y113720D01*
X121034Y113820D01*
X121000Y113909D01*
X120978Y113964D01*
X120967Y114009D01*
Y114020D01*
X120845Y114486D01*
X120745Y114963D01*
X120679Y115441D01*
X120656Y115662D01*
X120634Y115885D01*
X120623Y116084D01*
X120612Y116262D01*
X120601Y116428D01*
X120590Y116573D01*
Y116684D01*
Y116772D01*
Y116817D01*
Y116839D01*
Y117172D01*
X120601Y117494D01*
X120623Y117794D01*
X120645Y118071D01*
X120668Y118338D01*
X120701Y118593D01*
X120734Y118815D01*
X120767Y119026D01*
X120801Y119214D01*
X120834Y119381D01*
X120867Y119525D01*
X120890Y119636D01*
X120912Y119736D01*
X120934Y119803D01*
X120945Y119847D01*
Y119858D01*
X121012Y120080D01*
X121089Y120291D01*
X121167Y120491D01*
X121245Y120680D01*
X121322Y120846D01*
X121400Y121013D01*
X121478Y121157D01*
X121556Y121290D01*
X121633Y121412D01*
X121700Y121523D01*
X121755Y121612D01*
X121811Y121690D01*
X121855Y121745D01*
X121889Y121790D01*
X121900Y121812D01*
X121911Y121823D01*
X122144Y122089D01*
X122377Y122311D01*
X122599Y122500D01*
X122810Y122655D01*
X122987Y122766D01*
X123065Y122811D01*
X123132Y122844D01*
X123187Y122877D01*
X123221Y122900D01*
X123243Y122911D01*
X123254D01*
X123398Y122966D01*
X123553Y123022D01*
X123898Y123099D01*
X124253Y123155D01*
X124597Y123188D01*
X124763Y123210D01*
X124919Y123222D01*
X125052D01*
X125174Y123233D01*
X129181D01*
Y110723D01*
D02*
G37*
%LPC*%
G36*
X127116Y121112D02*
X125751D01*
X125563Y121101D01*
X125396Y121090D01*
X125241D01*
X125107Y121079D01*
X124985Y121068D01*
X124874Y121057D01*
X124786Y121046D01*
X124708Y121035D01*
X124641Y121024D01*
X124586D01*
X124541Y121013D01*
X124519Y121002D01*
X124497D01*
X124286Y120935D01*
X124097Y120846D01*
X123931Y120735D01*
X123787Y120635D01*
X123676Y120546D01*
X123587Y120469D01*
X123542Y120413D01*
X123520Y120391D01*
X123376Y120202D01*
X123254Y120002D01*
X123154Y119792D01*
X123065Y119592D01*
X122999Y119403D01*
X122976Y119325D01*
X122954Y119259D01*
X122943Y119203D01*
X122932Y119159D01*
X122921Y119137D01*
Y119126D01*
X122887Y118970D01*
X122854Y118804D01*
X122810Y118449D01*
X122765Y118082D01*
X122743Y117738D01*
X122732Y117572D01*
Y117416D01*
Y117283D01*
X122721Y117172D01*
Y117072D01*
Y117006D01*
Y116950D01*
Y116939D01*
Y116695D01*
X122732Y116462D01*
X122743Y116251D01*
X122754Y116040D01*
X122765Y115851D01*
X122776Y115674D01*
X122799Y115507D01*
X122810Y115363D01*
X122832Y115230D01*
X122854Y115119D01*
X122865Y115019D01*
X122876Y114930D01*
X122887Y114874D01*
X122899Y114819D01*
X122910Y114797D01*
Y114786D01*
X122987Y114497D01*
X123065Y114253D01*
X123143Y114053D01*
X123221Y113886D01*
X123287Y113753D01*
X123343Y113665D01*
X123376Y113609D01*
X123387Y113587D01*
X123498Y113454D01*
X123620Y113343D01*
X123753Y113243D01*
X123864Y113165D01*
X123975Y113098D01*
X124053Y113054D01*
X124108Y113032D01*
X124131Y113021D01*
X124220Y112987D01*
X124319Y112965D01*
X124541Y112921D01*
X124786Y112888D01*
X125019Y112865D01*
X125230Y112854D01*
X125330D01*
X125407Y112843D01*
X127116D01*
Y121112D01*
D02*
G37*
%LPD*%
D10*
X193777Y106605D02*
G03*
X228770Y106576I17473J-27856D01*
G01*
X108777Y106605D02*
G03*
X143770Y106576I17473J-27856D01*
G01*
X193777Y106605D02*
X228770Y106576D01*
X222500Y99000D02*
X231000D01*
X226750Y94750D02*
Y103000D01*
X108777Y106605D02*
X143770Y106576D01*
X137500Y99000D02*
X146000D01*
X141750Y94750D02*
Y103000D01*
M02*
