G04*
G04 #@! TF.GenerationSoftware,Altium Limited,Altium Designer,26.5.0 (11)*
G04*
G04 Layer_Color=65535*
G04 Board_Origin=0|0*
%FSLAX44Y44*%
%MOMM*%
G71*
G04*
G04 #@! TF.SameCoordinates,7E49C3A9-1511-4E69-90EF-6E4C821B1FBF*
G04*
G04*
G04 #@! TF.FilePolarity,Positive*
G04*
G01*
G75*
%ADD10C,0.2000*%
G36*
X175250Y75422D02*
Y52578D01*
X174103D01*
Y59776D01*
D01*
Y56477D01*
X174095Y56652D01*
X174086Y56827D01*
X174036Y57160D01*
X173969Y57477D01*
X173928Y57618D01*
X173886Y57760D01*
X173853Y57885D01*
X173811Y57993D01*
X173778Y58093D01*
X173745Y58177D01*
X173720Y58243D01*
X173695Y58293D01*
X173686Y58327D01*
X173678Y58335D01*
X173595Y58502D01*
X173511Y58668D01*
X173428Y58818D01*
X173336Y58951D01*
X173253Y59085D01*
X173170Y59201D01*
X173086Y59310D01*
X173003Y59410D01*
X172936Y59493D01*
X172861Y59568D01*
X172803Y59626D01*
X172753Y59685D01*
X172712Y59726D01*
X172678Y59751D01*
X172661Y59768D01*
X172653Y59776D01*
X168913D01*
Y56427D01*
X170504D01*
Y58210D01*
X171687D01*
X171820Y58060D01*
X171928Y57910D01*
X172028Y57760D01*
X172112Y57618D01*
X172178Y57502D01*
X172228Y57410D01*
X172245Y57377D01*
X172262Y57352D01*
X172270Y57335D01*
Y57327D01*
X172337Y57152D01*
X172387Y56977D01*
X172428Y56819D01*
X172453Y56677D01*
X172470Y56552D01*
X172478Y56469D01*
Y56385D01*
X172470Y56210D01*
X172445Y56035D01*
X172412Y55886D01*
X172362Y55736D01*
X172303Y55594D01*
X172237Y55469D01*
X172170Y55352D01*
X172095Y55252D01*
X172028Y55152D01*
X171962Y55077D01*
X171895Y55002D01*
X171837Y54944D01*
X171787Y54902D01*
X171753Y54869D01*
X171728Y54852D01*
X171720Y54844D01*
X171545Y54727D01*
X171353Y54627D01*
X171154Y54536D01*
X170945Y54461D01*
X170729Y54394D01*
X170520Y54344D01*
X170304Y54294D01*
X170104Y54261D01*
X169904Y54236D01*
X169729Y54211D01*
X169562Y54194D01*
X169421Y54186D01*
X169304D01*
X169221Y54178D01*
X169187D01*
X169162D01*
X169154D01*
X169146D01*
X168854Y54186D01*
X168588Y54203D01*
X168338Y54236D01*
X168113Y54269D01*
X167896Y54319D01*
X167705Y54369D01*
X167530Y54427D01*
X167379Y54486D01*
X167238Y54536D01*
X167121Y54594D01*
X167021Y54644D01*
X166938Y54694D01*
X166880Y54727D01*
X166830Y54761D01*
X166805Y54777D01*
X166796Y54786D01*
X166663Y54902D01*
X166538Y55036D01*
X166438Y55161D01*
X166346Y55294D01*
X166271Y55436D01*
X166213Y55569D01*
X166163Y55694D01*
X166122Y55819D01*
X166088Y55936D01*
X166063Y56044D01*
X166047Y56144D01*
X166030Y56227D01*
Y56302D01*
X166022Y56352D01*
Y56510D01*
X166038Y56627D01*
X166080Y56835D01*
X166147Y57027D01*
X166213Y57185D01*
X166288Y57319D01*
X166322Y57368D01*
X166355Y57410D01*
X166380Y57443D01*
X166397Y57477D01*
X166405Y57485D01*
X166413Y57493D01*
X166571Y57652D01*
X166746Y57793D01*
X166930Y57902D01*
X167105Y57993D01*
X167263Y58052D01*
X167338Y58077D01*
X167396Y58102D01*
X167446Y58118D01*
X167479Y58127D01*
X167505Y58135D01*
X167513D01*
X167163Y59676D01*
X166913Y59626D01*
X166688Y59559D01*
X166471Y59485D01*
X166271Y59410D01*
X166080Y59318D01*
X165913Y59226D01*
X165763Y59143D01*
X165622Y59051D01*
X165505Y58960D01*
X165397Y58876D01*
X165305Y58801D01*
X165238Y58735D01*
X165180Y58676D01*
X165138Y58635D01*
X165114Y58610D01*
X165105Y58601D01*
X164980Y58443D01*
X164872Y58268D01*
X164780Y58093D01*
X164697Y57910D01*
X164630Y57727D01*
X164572Y57543D01*
X164522Y57368D01*
X164489Y57193D01*
X164455Y57027D01*
X164430Y56877D01*
X164422Y56744D01*
X164405Y56627D01*
Y56535D01*
X164397Y56460D01*
Y56402D01*
X164405Y56194D01*
X164422Y55985D01*
X164447Y55794D01*
X164480Y55611D01*
X164522Y55436D01*
X164572Y55269D01*
X164622Y55119D01*
X164672Y54986D01*
X164722Y54861D01*
X164772Y54752D01*
X164822Y54653D01*
X164863Y54577D01*
X164897Y54511D01*
X164922Y54469D01*
X164939Y54436D01*
X164947Y54427D01*
X165055Y54278D01*
X165172Y54136D01*
X165297Y53994D01*
X165430Y53869D01*
X165563Y53753D01*
X165705Y53644D01*
X165838Y53536D01*
X165972Y53444D01*
X166096Y53369D01*
X166213Y53295D01*
X166313Y53228D01*
X166405Y53178D01*
X166480Y53136D01*
X166538Y53111D01*
X166571Y53095D01*
X166588Y53086D01*
X166796Y52995D01*
X167021Y52920D01*
X167238Y52853D01*
X167463Y52795D01*
X167688Y52745D01*
X167913Y52703D01*
X168121Y52670D01*
X168321Y52645D01*
X168513Y52620D01*
X168687Y52603D01*
X168846Y52595D01*
X168979Y52586D01*
X169087Y52578D01*
X164397D01*
D01*
X163250D01*
Y75422D01*
X175250D01*
D02*
G37*
G36*
X174103Y52578D02*
X169237D01*
X169521Y52586D01*
X169787Y52603D01*
X170046Y52628D01*
X170287Y52661D01*
X170520Y52695D01*
X170737Y52736D01*
X170937Y52786D01*
X171120Y52836D01*
X171287Y52878D01*
X171437Y52928D01*
X171562Y52970D01*
X171670Y53011D01*
X171753Y53036D01*
X171820Y53061D01*
X171853Y53078D01*
X171870Y53086D01*
X172070Y53186D01*
X172262Y53295D01*
X172437Y53403D01*
X172603Y53519D01*
X172753Y53628D01*
X172887Y53744D01*
X173011Y53853D01*
X173128Y53961D01*
X173220Y54069D01*
X173311Y54161D01*
X173378Y54244D01*
X173436Y54319D01*
X173486Y54377D01*
X173520Y54419D01*
X173536Y54453D01*
X173545Y54461D01*
X173645Y54627D01*
X173728Y54802D01*
X173803Y54969D01*
X173870Y55144D01*
X173920Y55319D01*
X173969Y55486D01*
X174003Y55644D01*
X174036Y55794D01*
X174053Y55944D01*
X174069Y56069D01*
X174086Y56185D01*
X174095Y56285D01*
X174103Y56369D01*
Y52578D01*
D02*
G37*
G36*
X155250Y75173D02*
Y52328D01*
X154103D01*
D01*
X149237D01*
X149521Y52337D01*
X149787Y52353D01*
X150046Y52378D01*
X150287Y52412D01*
X150520Y52445D01*
X150737Y52487D01*
X150937Y52537D01*
X151120Y52587D01*
X151287Y52628D01*
X151437Y52678D01*
X151562Y52720D01*
X151670Y52762D01*
X151754Y52787D01*
X151820Y52812D01*
X151854Y52828D01*
X151870Y52837D01*
X152070Y52937D01*
X152262Y53045D01*
X152437Y53153D01*
X152603Y53270D01*
X152753Y53378D01*
X152887Y53495D01*
X153012Y53603D01*
X153128Y53711D01*
X153220Y53820D01*
X153312Y53911D01*
X153378Y53995D01*
X153436Y54070D01*
X153486Y54128D01*
X153520Y54170D01*
X153536Y54203D01*
X153545Y54211D01*
X153645Y54378D01*
X153728Y54553D01*
X153803Y54719D01*
X153870Y54894D01*
X153920Y55069D01*
X153970Y55236D01*
X154003Y55394D01*
X154036Y55544D01*
X154053Y55694D01*
X154070Y55819D01*
X154086Y55936D01*
X154095Y56036D01*
X154103Y56119D01*
Y56227D01*
X154095Y56402D01*
X154086Y56577D01*
X154036Y56911D01*
X153970Y57227D01*
X153928Y57369D01*
X153886Y57510D01*
X153853Y57635D01*
X153811Y57744D01*
X153778Y57844D01*
X153745Y57927D01*
X153720Y57994D01*
X153695Y58044D01*
X153686Y58077D01*
X153678Y58085D01*
X153595Y58252D01*
X153511Y58418D01*
X153428Y58568D01*
X153336Y58702D01*
X153253Y58835D01*
X153170Y58952D01*
X153087Y59060D01*
X153003Y59160D01*
X152936Y59243D01*
X152862Y59318D01*
X152803Y59377D01*
X152753Y59435D01*
X152712Y59476D01*
X152678Y59502D01*
X152662Y59518D01*
X152653Y59527D01*
X148913D01*
Y56177D01*
X150504D01*
Y57960D01*
X151687D01*
X151820Y57810D01*
X151929Y57660D01*
X152028Y57510D01*
X152112Y57369D01*
X152178Y57252D01*
X152228Y57161D01*
X152245Y57127D01*
X152262Y57102D01*
X152270Y57085D01*
Y57077D01*
X152337Y56902D01*
X152387Y56727D01*
X152428Y56569D01*
X152453Y56427D01*
X152470Y56302D01*
X152478Y56219D01*
Y56136D01*
X152470Y55961D01*
X152445Y55786D01*
X152412Y55636D01*
X152362Y55486D01*
X152303Y55344D01*
X152237Y55219D01*
X152170Y55103D01*
X152095Y55003D01*
X152028Y54903D01*
X151962Y54828D01*
X151895Y54753D01*
X151837Y54694D01*
X151787Y54653D01*
X151754Y54619D01*
X151728Y54603D01*
X151720Y54594D01*
X151545Y54478D01*
X151354Y54378D01*
X151154Y54286D01*
X150945Y54211D01*
X150729Y54145D01*
X150520Y54095D01*
X150304Y54045D01*
X150104Y54011D01*
X149904Y53986D01*
X149729Y53961D01*
X149562Y53945D01*
X149421Y53936D01*
X149304D01*
X149221Y53928D01*
X149187D01*
X149163D01*
X149154D01*
X149146D01*
X148854Y53936D01*
X148588Y53953D01*
X148338Y53986D01*
X148113Y54020D01*
X147896Y54070D01*
X147705Y54120D01*
X147530Y54178D01*
X147380Y54236D01*
X147238Y54286D01*
X147121Y54345D01*
X147021Y54394D01*
X146938Y54444D01*
X146880Y54478D01*
X146830Y54511D01*
X146805Y54528D01*
X146797Y54536D01*
X146663Y54653D01*
X146538Y54786D01*
X146438Y54911D01*
X146347Y55044D01*
X146272Y55186D01*
X146213Y55319D01*
X146163Y55444D01*
X146122Y55569D01*
X146088Y55686D01*
X146063Y55794D01*
X146047Y55894D01*
X146030Y55977D01*
Y56052D01*
X146022Y56102D01*
Y56261D01*
X146038Y56377D01*
X146080Y56586D01*
X146147Y56777D01*
X146213Y56936D01*
X146288Y57069D01*
X146322Y57119D01*
X146355Y57161D01*
X146380Y57194D01*
X146397Y57227D01*
X146405Y57235D01*
X146413Y57244D01*
X146572Y57402D01*
X146747Y57544D01*
X146930Y57652D01*
X147105Y57744D01*
X147263Y57802D01*
X147338Y57827D01*
X147396Y57852D01*
X147446Y57869D01*
X147480Y57877D01*
X147505Y57885D01*
X147513D01*
X147163Y59427D01*
X146913Y59377D01*
X146688Y59310D01*
X146472Y59235D01*
X146272Y59160D01*
X146080Y59068D01*
X145913Y58977D01*
X145763Y58893D01*
X145622Y58802D01*
X145505Y58710D01*
X145397Y58627D01*
X145305Y58552D01*
X145239Y58485D01*
X145180Y58427D01*
X145139Y58385D01*
X145114Y58360D01*
X145105Y58352D01*
X144980Y58193D01*
X144872Y58019D01*
X144780Y57844D01*
X144697Y57660D01*
X144630Y57477D01*
X144572Y57294D01*
X144522Y57119D01*
X144489Y56944D01*
X144455Y56777D01*
X144430Y56627D01*
X144422Y56494D01*
X144405Y56377D01*
Y56286D01*
X144397Y56211D01*
Y59527D01*
D01*
D01*
Y52328D01*
X143250D01*
Y75173D01*
X155250D01*
D02*
G37*
G36*
X144405Y55944D02*
X144422Y55736D01*
X144447Y55544D01*
X144480Y55361D01*
X144522Y55186D01*
X144572Y55019D01*
X144622Y54869D01*
X144672Y54736D01*
X144722Y54611D01*
X144772Y54503D01*
X144822Y54403D01*
X144864Y54328D01*
X144897Y54261D01*
X144922Y54220D01*
X144939Y54186D01*
X144947Y54178D01*
X145055Y54028D01*
X145172Y53886D01*
X145297Y53745D01*
X145430Y53620D01*
X145563Y53503D01*
X145705Y53395D01*
X145838Y53286D01*
X145972Y53195D01*
X146097Y53120D01*
X146213Y53045D01*
X146313Y52978D01*
X146405Y52928D01*
X146480Y52887D01*
X146538Y52862D01*
X146572Y52845D01*
X146588Y52837D01*
X146797Y52745D01*
X147021Y52670D01*
X147238Y52603D01*
X147463Y52545D01*
X147688Y52495D01*
X147913Y52453D01*
X148121Y52420D01*
X148321Y52395D01*
X148513Y52370D01*
X148688Y52353D01*
X148846Y52345D01*
X148979Y52337D01*
X149087Y52328D01*
X144397D01*
Y56152D01*
X144405Y55944D01*
D02*
G37*
G36*
X195250Y52328D02*
X194103D01*
D01*
X189237D01*
X189521Y52337D01*
X189787Y52353D01*
X190046Y52378D01*
X190287Y52412D01*
X190520Y52445D01*
X190737Y52487D01*
X190937Y52537D01*
X191120Y52587D01*
X191287Y52628D01*
X191437Y52678D01*
X191562Y52720D01*
X191670Y52762D01*
X191754Y52787D01*
X191820Y52812D01*
X191854Y52828D01*
X191870Y52837D01*
X192070Y52937D01*
X192262Y53045D01*
X192437Y53153D01*
X192603Y53270D01*
X192753Y53378D01*
X192887Y53495D01*
X193011Y53603D01*
X193128Y53711D01*
X193220Y53820D01*
X193311Y53911D01*
X193378Y53995D01*
X193436Y54070D01*
X193486Y54128D01*
X193520Y54170D01*
X193536Y54203D01*
X193545Y54211D01*
X193645Y54378D01*
X193728Y54553D01*
X193803Y54719D01*
X193870Y54894D01*
X193920Y55069D01*
X193970Y55236D01*
X194003Y55394D01*
X194036Y55544D01*
X194053Y55694D01*
X194070Y55819D01*
X194086Y55936D01*
X194095Y56036D01*
X194103Y56119D01*
Y56227D01*
X194095Y56402D01*
X194086Y56577D01*
X194036Y56911D01*
X193970Y57227D01*
X193928Y57369D01*
X193886Y57510D01*
X193853Y57635D01*
X193811Y57744D01*
X193778Y57844D01*
X193745Y57927D01*
X193720Y57994D01*
X193695Y58044D01*
X193686Y58077D01*
X193678Y58085D01*
X193595Y58252D01*
X193511Y58418D01*
X193428Y58569D01*
X193336Y58702D01*
X193253Y58835D01*
X193170Y58952D01*
X193086Y59060D01*
X193003Y59160D01*
X192936Y59243D01*
X192861Y59318D01*
X192803Y59377D01*
X192753Y59435D01*
X192712Y59477D01*
X192678Y59502D01*
X192662Y59518D01*
X192653Y59527D01*
X188913D01*
Y56177D01*
X190504D01*
Y57960D01*
X191687D01*
X191820Y57810D01*
X191928Y57660D01*
X192028Y57510D01*
X192112Y57369D01*
X192178Y57252D01*
X192228Y57161D01*
X192245Y57127D01*
X192262Y57102D01*
X192270Y57085D01*
Y57077D01*
X192337Y56902D01*
X192387Y56727D01*
X192428Y56569D01*
X192453Y56427D01*
X192470Y56302D01*
X192478Y56219D01*
Y56136D01*
X192470Y55961D01*
X192445Y55786D01*
X192412Y55636D01*
X192362Y55486D01*
X192303Y55344D01*
X192237Y55219D01*
X192170Y55103D01*
X192095Y55003D01*
X192028Y54903D01*
X191962Y54828D01*
X191895Y54753D01*
X191837Y54694D01*
X191787Y54653D01*
X191754Y54619D01*
X191728Y54603D01*
X191720Y54594D01*
X191545Y54478D01*
X191354Y54378D01*
X191154Y54286D01*
X190945Y54211D01*
X190729Y54145D01*
X190520Y54095D01*
X190304Y54045D01*
X190104Y54011D01*
X189904Y53986D01*
X189729Y53961D01*
X189562Y53945D01*
X189421Y53936D01*
X189304D01*
X189221Y53928D01*
X189188D01*
X189163D01*
X189154D01*
X189146D01*
X188854Y53936D01*
X188588Y53953D01*
X188338Y53986D01*
X188113Y54020D01*
X187896Y54070D01*
X187705Y54120D01*
X187530Y54178D01*
X187380Y54236D01*
X187238Y54286D01*
X187121Y54345D01*
X187021Y54394D01*
X186938Y54444D01*
X186880Y54478D01*
X186830Y54511D01*
X186805Y54528D01*
X186796Y54536D01*
X186663Y54653D01*
X186538Y54786D01*
X186438Y54911D01*
X186346Y55044D01*
X186272Y55186D01*
X186213Y55319D01*
X186163Y55444D01*
X186122Y55569D01*
X186088Y55686D01*
X186063Y55794D01*
X186047Y55894D01*
X186030Y55978D01*
Y56052D01*
X186022Y56102D01*
Y56261D01*
X186038Y56377D01*
X186080Y56586D01*
X186147Y56777D01*
X186213Y56936D01*
X186288Y57069D01*
X186322Y57119D01*
X186355Y57161D01*
X186380Y57194D01*
X186397Y57227D01*
X186405Y57235D01*
X186413Y57244D01*
X186572Y57402D01*
X186746Y57544D01*
X186930Y57652D01*
X187105Y57744D01*
X187263Y57802D01*
X187338Y57827D01*
X187396Y57852D01*
X187446Y57869D01*
X187480Y57877D01*
X187505Y57885D01*
X187513D01*
X187163Y59427D01*
X186913Y59377D01*
X186688Y59310D01*
X186472Y59235D01*
X186272Y59160D01*
X186080Y59068D01*
X185913Y58977D01*
X185763Y58893D01*
X185622Y58802D01*
X185505Y58710D01*
X185397Y58627D01*
X185305Y58552D01*
X185238Y58485D01*
X185180Y58427D01*
X185138Y58385D01*
X185114Y58360D01*
X185105Y58352D01*
X184980Y58194D01*
X184872Y58019D01*
X184780Y57844D01*
X184697Y57660D01*
X184630Y57477D01*
X184572Y57294D01*
X184522Y57119D01*
X184489Y56944D01*
X184455Y56777D01*
X184430Y56627D01*
X184422Y56494D01*
X184405Y56377D01*
Y56286D01*
X184397Y56211D01*
Y56152D01*
X184405Y55944D01*
X184422Y55736D01*
X184447Y55544D01*
X184480Y55361D01*
X184522Y55186D01*
X184572Y55019D01*
X184622Y54869D01*
X184672Y54736D01*
X184722Y54611D01*
X184772Y54503D01*
X184822Y54403D01*
X184864Y54328D01*
X184897Y54261D01*
X184922Y54220D01*
X184939Y54186D01*
X184947Y54178D01*
X185055Y54028D01*
X185172Y53886D01*
X185297Y53745D01*
X185430Y53620D01*
X185563Y53503D01*
X185705Y53395D01*
X185838Y53286D01*
X185972Y53195D01*
X186097Y53120D01*
X186213Y53045D01*
X186313Y52978D01*
X186405Y52928D01*
X186480Y52887D01*
X186538Y52862D01*
X186572Y52845D01*
X186588Y52837D01*
X186796Y52745D01*
X187021Y52670D01*
X187238Y52603D01*
X187463Y52545D01*
X187688Y52495D01*
X187913Y52453D01*
X188121Y52420D01*
X188321Y52395D01*
X188513Y52370D01*
X188688Y52353D01*
X188846Y52345D01*
X188979Y52337D01*
X189088Y52328D01*
X184397D01*
D01*
X183250D01*
Y75173D01*
X195250D01*
Y52328D01*
D02*
G37*
G36*
X243962Y56987D02*
X242392D01*
Y64203D01*
X242384Y64194D01*
X242348Y64159D01*
X242304Y64105D01*
X242233Y64043D01*
X242153Y63955D01*
X242056Y63866D01*
X241940Y63760D01*
X241807Y63653D01*
X241665Y63529D01*
X241506Y63414D01*
X241338Y63290D01*
X241160Y63175D01*
X240974Y63050D01*
X240779Y62944D01*
X240575Y62838D01*
X240362Y62749D01*
Y64486D01*
X240371D01*
X240389Y64495D01*
X240424Y64513D01*
X240478Y64540D01*
X240531Y64566D01*
X240602Y64602D01*
X240682Y64646D01*
X240770Y64699D01*
X240974Y64832D01*
X241089Y64903D01*
X241205Y64992D01*
X241329Y65089D01*
X241453Y65187D01*
X241577Y65302D01*
X241710Y65426D01*
X241719Y65435D01*
X241745Y65462D01*
X241781Y65497D01*
X241825Y65550D01*
X241887Y65612D01*
X241949Y65692D01*
X242020Y65781D01*
X242100Y65887D01*
X242180Y65993D01*
X242260Y66118D01*
X242339Y66251D01*
X242419Y66384D01*
X242570Y66685D01*
X242632Y66845D01*
X242685Y67013D01*
X243962D01*
Y56987D01*
D02*
G37*
G36*
X235850Y66969D02*
X235975Y66960D01*
X236107Y66951D01*
X236258Y66942D01*
X236568Y66907D01*
X236887Y66862D01*
X237038Y66827D01*
X237171Y66791D01*
X237304Y66747D01*
X237419Y66703D01*
X237428D01*
X237446Y66694D01*
X237473Y66676D01*
X237517Y66649D01*
X237561Y66623D01*
X237623Y66587D01*
X237756Y66490D01*
X237907Y66357D01*
X238067Y66197D01*
X238146Y66109D01*
X238217Y66002D01*
X238297Y65896D01*
X238368Y65772D01*
X238377Y65763D01*
X238386Y65745D01*
X238403Y65701D01*
X238430Y65657D01*
X238456Y65586D01*
X238483Y65515D01*
X238519Y65426D01*
X238554Y65320D01*
X238589Y65213D01*
X238625Y65089D01*
X238652Y64956D01*
X238678Y64815D01*
X238722Y64513D01*
X238740Y64176D01*
Y64167D01*
Y64123D01*
Y64061D01*
X238731Y63981D01*
X238722Y63884D01*
X238714Y63769D01*
X238696Y63644D01*
X238669Y63503D01*
X238598Y63201D01*
X238554Y63042D01*
X238501Y62882D01*
X238439Y62731D01*
X238359Y62572D01*
X238270Y62430D01*
X238173Y62288D01*
X238164Y62279D01*
X238146Y62262D01*
X238111Y62217D01*
X238067Y62173D01*
X238013Y62120D01*
X237942Y62049D01*
X237854Y61978D01*
X237756Y61907D01*
X237650Y61827D01*
X237535Y61756D01*
X237402Y61677D01*
X237260Y61606D01*
X237100Y61535D01*
X236932Y61473D01*
X236754Y61428D01*
X236568Y61384D01*
X236577D01*
X236595Y61366D01*
X236622Y61349D01*
X236657Y61322D01*
X236754Y61242D01*
X236879Y61145D01*
X237020Y61020D01*
X237162Y60879D01*
X237313Y60728D01*
X237446Y60560D01*
Y60551D01*
X237464Y60542D01*
X237481Y60506D01*
X237508Y60471D01*
X237544Y60418D01*
X237588Y60356D01*
X237641Y60276D01*
X237694Y60187D01*
X237765Y60081D01*
X237836Y59966D01*
X237916Y59833D01*
X237996Y59682D01*
X238084Y59514D01*
X238182Y59336D01*
X238288Y59141D01*
X238395Y58928D01*
X239396Y56987D01*
X237419D01*
X236223Y59159D01*
X236214Y59177D01*
X236196Y59212D01*
X236161Y59274D01*
X236116Y59345D01*
X236063Y59443D01*
X236010Y59549D01*
X235939Y59664D01*
X235868Y59788D01*
X235726Y60037D01*
X235576Y60276D01*
X235513Y60382D01*
X235451Y60480D01*
X235389Y60568D01*
X235345Y60630D01*
X235336Y60639D01*
X235310Y60675D01*
X235256Y60728D01*
X235194Y60790D01*
X235124Y60861D01*
X235035Y60923D01*
X234946Y60985D01*
X234849Y61038D01*
X234840Y61047D01*
X234804Y61056D01*
X234733Y61074D01*
X234654Y61100D01*
X234538Y61118D01*
X234397Y61136D01*
X234219Y61145D01*
X234024Y61153D01*
X233687D01*
Y56987D01*
X232039D01*
Y66978D01*
X235735D01*
X235850Y66969D01*
D02*
G37*
G36*
X112947Y126212D02*
X113044Y126203D01*
X113168Y126195D01*
X113310Y126177D01*
X113469Y126142D01*
X113638Y126106D01*
X113815Y126062D01*
X114001Y126000D01*
X114196Y125920D01*
X114391Y125831D01*
X114586Y125725D01*
X114773Y125601D01*
X114950Y125459D01*
X115118Y125299D01*
X115127Y125290D01*
X115154Y125264D01*
X115189Y125220D01*
X115233Y125166D01*
X115287Y125096D01*
X115349Y125007D01*
X115411Y124909D01*
X115482Y124803D01*
X115553Y124688D01*
X115615Y124555D01*
X115677Y124413D01*
X115730Y124262D01*
X115774Y124103D01*
X115819Y123943D01*
X115836Y123775D01*
X115845Y123597D01*
Y123580D01*
Y123535D01*
X115836Y123464D01*
X115819Y123376D01*
X115801Y123260D01*
X115765Y123127D01*
X115721Y122986D01*
X115659Y122826D01*
X115579Y122658D01*
X115482Y122480D01*
X115366Y122303D01*
X115225Y122117D01*
X115047Y121940D01*
X114852Y121771D01*
X114622Y121603D01*
X114365Y121443D01*
X114374D01*
X114400Y121434D01*
X114453Y121426D01*
X114507Y121408D01*
X114586Y121381D01*
X114666Y121346D01*
X114764Y121310D01*
X114870Y121266D01*
X115092Y121160D01*
X115207Y121089D01*
X115322Y121009D01*
X115446Y120920D01*
X115553Y120823D01*
X115668Y120716D01*
X115765Y120601D01*
X115774Y120592D01*
X115792Y120575D01*
X115819Y120539D01*
X115845Y120486D01*
X115890Y120424D01*
X115934Y120344D01*
X115978Y120255D01*
X116031Y120158D01*
X116084Y120043D01*
X116129Y119927D01*
X116173Y119794D01*
X116217Y119653D01*
X116244Y119511D01*
X116271Y119351D01*
X116288Y119183D01*
X116297Y119014D01*
Y118997D01*
Y118952D01*
X116288Y118881D01*
X116279Y118793D01*
X116271Y118678D01*
X116244Y118536D01*
X116217Y118385D01*
X116173Y118225D01*
X116120Y118048D01*
X116058Y117862D01*
X115978Y117676D01*
X115881Y117481D01*
X115765Y117286D01*
X115641Y117091D01*
X115491Y116905D01*
X115313Y116718D01*
X115304Y116709D01*
X115269Y116674D01*
X115216Y116630D01*
X115136Y116568D01*
X115038Y116497D01*
X114923Y116417D01*
X114790Y116337D01*
X114640Y116249D01*
X114471Y116160D01*
X114285Y116080D01*
X114081Y116000D01*
X113868Y115929D01*
X113638Y115867D01*
X113390Y115823D01*
X113133Y115788D01*
X112867Y115779D01*
X112805D01*
X112734Y115788D01*
X112636D01*
X112512Y115805D01*
X112379Y115823D01*
X112228Y115841D01*
X112060Y115876D01*
X111883Y115921D01*
X111697Y115974D01*
X111502Y116036D01*
X111306Y116116D01*
X111111Y116204D01*
X110925Y116311D01*
X110739Y116426D01*
X110562Y116568D01*
X110553Y116577D01*
X110526Y116603D01*
X110473Y116648D01*
X110420Y116709D01*
X110349Y116789D01*
X110269Y116887D01*
X110181Y117002D01*
X110092Y117126D01*
X109994Y117268D01*
X109906Y117428D01*
X109817Y117605D01*
X109729Y117791D01*
X109658Y117986D01*
X109596Y118199D01*
X109543Y118420D01*
X109507Y118660D01*
X111404Y118890D01*
Y118881D01*
X111413Y118855D01*
Y118819D01*
X111422Y118775D01*
X111440Y118713D01*
X111457Y118642D01*
X111502Y118483D01*
X111564Y118296D01*
X111643Y118119D01*
X111750Y117942D01*
X111883Y117782D01*
X111892D01*
X111900Y117764D01*
X111954Y117720D01*
X112042Y117658D01*
X112157Y117596D01*
X112290Y117525D01*
X112459Y117463D01*
X112645Y117419D01*
X112743Y117410D01*
X112849Y117401D01*
X112911D01*
X112947Y117410D01*
X113000Y117419D01*
X113062Y117428D01*
X113203Y117454D01*
X113363Y117507D01*
X113532Y117596D01*
X113620Y117640D01*
X113709Y117702D01*
X113789Y117773D01*
X113868Y117853D01*
X113877Y117862D01*
X113886Y117871D01*
X113904Y117897D01*
X113930Y117942D01*
X113966Y117986D01*
X114001Y118039D01*
X114037Y118110D01*
X114081Y118181D01*
X114117Y118270D01*
X114152Y118358D01*
X114223Y118571D01*
X114267Y118819D01*
X114285Y118961D01*
Y119103D01*
Y119112D01*
Y119138D01*
Y119174D01*
X114276Y119227D01*
Y119289D01*
X114267Y119360D01*
X114232Y119529D01*
X114187Y119715D01*
X114117Y119910D01*
X114019Y120096D01*
X113957Y120184D01*
X113886Y120273D01*
Y120282D01*
X113868Y120291D01*
X113815Y120344D01*
X113727Y120415D01*
X113620Y120495D01*
X113478Y120575D01*
X113310Y120637D01*
X113124Y120690D01*
X113026Y120699D01*
X112920Y120708D01*
X112858D01*
X112778Y120699D01*
X112672Y120690D01*
X112539Y120672D01*
X112388Y120645D01*
X112220Y120610D01*
X112033Y120557D01*
X112246Y122161D01*
X112379D01*
X112441Y122170D01*
X112521D01*
X112689Y122197D01*
X112884Y122232D01*
X113088Y122294D01*
X113283Y122383D01*
X113372Y122436D01*
X113452Y122498D01*
X113461Y122507D01*
X113469Y122516D01*
X113523Y122569D01*
X113585Y122649D01*
X113665Y122764D01*
X113744Y122897D01*
X113815Y123066D01*
X113860Y123260D01*
X113868Y123367D01*
X113877Y123473D01*
Y123482D01*
Y123500D01*
Y123526D01*
X113868Y123562D01*
X113860Y123651D01*
X113842Y123766D01*
X113798Y123899D01*
X113744Y124041D01*
X113673Y124173D01*
X113567Y124298D01*
X113549Y124315D01*
X113514Y124351D01*
X113443Y124395D01*
X113345Y124457D01*
X113230Y124510D01*
X113088Y124564D01*
X112929Y124599D01*
X112751Y124608D01*
X112707D01*
X112672Y124599D01*
X112574Y124590D01*
X112459Y124564D01*
X112317Y124519D01*
X112175Y124457D01*
X112033Y124369D01*
X111892Y124253D01*
X111874Y124236D01*
X111838Y124191D01*
X111776Y124111D01*
X111705Y123996D01*
X111635Y123854D01*
X111564Y123677D01*
X111502Y123473D01*
X111466Y123243D01*
X109658Y123544D01*
Y123553D01*
X109667Y123588D01*
X109675Y123633D01*
X109693Y123695D01*
X109711Y123775D01*
X109738Y123872D01*
X109764Y123970D01*
X109799Y124076D01*
X109879Y124315D01*
X109977Y124564D01*
X110092Y124803D01*
X110154Y124918D01*
X110225Y125024D01*
X110234Y125033D01*
X110243Y125051D01*
X110269Y125078D01*
X110296Y125113D01*
X110385Y125220D01*
X110500Y125344D01*
X110651Y125485D01*
X110828Y125627D01*
X111041Y125769D01*
X111280Y125902D01*
X111289D01*
X111315Y125920D01*
X111351Y125929D01*
X111404Y125955D01*
X111466Y125973D01*
X111537Y126000D01*
X111626Y126035D01*
X111723Y126062D01*
X111838Y126088D01*
X111954Y126124D01*
X112211Y126168D01*
X112494Y126203D01*
X112805Y126221D01*
X112867D01*
X112947Y126212D01*
D02*
G37*
G36*
X104445Y126168D02*
X104596Y126159D01*
X104764Y126150D01*
X104951Y126142D01*
X105341Y126106D01*
X105739Y126062D01*
X105926Y126026D01*
X106103Y125991D01*
X106271Y125947D01*
X106422Y125893D01*
X106431D01*
X106458Y125884D01*
X106493Y125867D01*
X106546Y125840D01*
X106608Y125805D01*
X106679Y125769D01*
X106848Y125672D01*
X107043Y125530D01*
X107140Y125450D01*
X107238Y125361D01*
X107335Y125264D01*
X107433Y125157D01*
X107521Y125033D01*
X107610Y124909D01*
X107619Y124900D01*
X107628Y124874D01*
X107654Y124838D01*
X107681Y124785D01*
X107716Y124723D01*
X107752Y124643D01*
X107796Y124546D01*
X107840Y124448D01*
X107876Y124333D01*
X107920Y124209D01*
X107956Y124076D01*
X107991Y123934D01*
X108044Y123633D01*
X108053Y123473D01*
X108062Y123305D01*
Y123296D01*
Y123252D01*
Y123190D01*
X108053Y123110D01*
X108044Y123012D01*
X108027Y122897D01*
X108009Y122773D01*
X107973Y122631D01*
X107938Y122489D01*
X107894Y122330D01*
X107840Y122179D01*
X107778Y122011D01*
X107699Y121851D01*
X107601Y121700D01*
X107504Y121541D01*
X107380Y121399D01*
X107371Y121390D01*
X107344Y121363D01*
X107309Y121328D01*
X107255Y121284D01*
X107184Y121222D01*
X107096Y121151D01*
X106989Y121080D01*
X106874Y121000D01*
X106741Y120920D01*
X106590Y120840D01*
X106431Y120761D01*
X106245Y120690D01*
X106050Y120619D01*
X105837Y120557D01*
X105607Y120504D01*
X105367Y120459D01*
X105376D01*
X105394Y120442D01*
X105429Y120424D01*
X105483Y120388D01*
X105536Y120353D01*
X105598Y120309D01*
X105757Y120202D01*
X105926Y120078D01*
X106112Y119936D01*
X106298Y119768D01*
X106466Y119599D01*
X106475Y119591D01*
X106484Y119582D01*
X106511Y119546D01*
X106546Y119511D01*
X106590Y119458D01*
X106644Y119387D01*
X106706Y119316D01*
X106777Y119218D01*
X106856Y119112D01*
X106945Y118997D01*
X107043Y118855D01*
X107149Y118704D01*
X107264Y118536D01*
X107380Y118358D01*
X107513Y118154D01*
X107645Y117942D01*
X108895Y115956D01*
X106422D01*
X104933Y118181D01*
X104924Y118199D01*
X104897Y118234D01*
X104862Y118296D01*
X104800Y118376D01*
X104738Y118465D01*
X104667Y118571D01*
X104587Y118686D01*
X104499Y118811D01*
X104312Y119067D01*
X104135Y119316D01*
X104055Y119422D01*
X103975Y119529D01*
X103905Y119608D01*
X103842Y119679D01*
X103834Y119697D01*
X103789Y119732D01*
X103736Y119786D01*
X103656Y119848D01*
X103559Y119918D01*
X103461Y119989D01*
X103346Y120051D01*
X103222Y120105D01*
X103204Y120114D01*
X103160Y120122D01*
X103080Y120140D01*
X102974Y120167D01*
X102823Y120184D01*
X102646Y120202D01*
X102433Y120211D01*
X102318Y120220D01*
X101768D01*
Y115956D01*
X99703D01*
Y126177D01*
X104304D01*
X104445Y126168D01*
D02*
G37*
G36*
X234142Y126124D02*
X234248D01*
X234372Y126106D01*
X234523Y126088D01*
X234682Y126062D01*
X234860Y126026D01*
X235046Y125982D01*
X235241Y125929D01*
X235436Y125867D01*
X235640Y125787D01*
X235835Y125689D01*
X236021Y125583D01*
X236207Y125450D01*
X236375Y125308D01*
X236384Y125299D01*
X236411Y125273D01*
X236455Y125228D01*
X236508Y125166D01*
X236579Y125087D01*
X236650Y124989D01*
X236730Y124874D01*
X236810Y124750D01*
X236889Y124608D01*
X236969Y124457D01*
X237040Y124289D01*
X237111Y124111D01*
X237164Y123917D01*
X237209Y123713D01*
X237235Y123500D01*
X237244Y123278D01*
Y123269D01*
Y123252D01*
Y123207D01*
Y123163D01*
X237235Y123101D01*
Y123030D01*
X237226Y122950D01*
X237218Y122862D01*
X237182Y122658D01*
X237138Y122436D01*
X237076Y122206D01*
X236996Y121966D01*
Y121957D01*
X236987Y121940D01*
X236969Y121904D01*
X236952Y121860D01*
X236925Y121798D01*
X236889Y121736D01*
X236854Y121656D01*
X236801Y121567D01*
X236695Y121372D01*
X236562Y121151D01*
X236393Y120911D01*
X236207Y120663D01*
Y120654D01*
X236189Y120645D01*
X236171Y120619D01*
X236136Y120575D01*
X236101Y120530D01*
X236047Y120477D01*
X235985Y120406D01*
X235914Y120326D01*
X235835Y120238D01*
X235737Y120140D01*
X235631Y120034D01*
X235515Y119918D01*
X235382Y119786D01*
X235241Y119653D01*
X235090Y119511D01*
X234922Y119351D01*
X234913Y119342D01*
X234877Y119316D01*
X234833Y119271D01*
X234771Y119218D01*
X234700Y119147D01*
X234611Y119067D01*
X234425Y118890D01*
X234221Y118704D01*
X234035Y118518D01*
X233946Y118429D01*
X233867Y118350D01*
X233796Y118279D01*
X233743Y118216D01*
X233734Y118208D01*
X233698Y118172D01*
X233654Y118119D01*
X233601Y118048D01*
X233539Y117968D01*
X233468Y117880D01*
X233406Y117782D01*
X233344Y117685D01*
X237244D01*
Y115867D01*
X230374D01*
Y115876D01*
X230383Y115912D01*
X230392Y115965D01*
X230401Y116045D01*
X230418Y116133D01*
X230436Y116240D01*
X230463Y116364D01*
X230498Y116497D01*
X230534Y116639D01*
X230587Y116798D01*
X230702Y117126D01*
X230773Y117295D01*
X230853Y117472D01*
X230941Y117640D01*
X231039Y117818D01*
X231048Y117826D01*
X231066Y117862D01*
X231101Y117915D01*
X231154Y117986D01*
X231216Y118084D01*
X231305Y118190D01*
X231402Y118323D01*
X231526Y118474D01*
X231668Y118642D01*
X231828Y118828D01*
X232005Y119032D01*
X232209Y119245D01*
X232431Y119484D01*
X232679Y119732D01*
X232954Y119998D01*
X233246Y120273D01*
X233264Y120291D01*
X233308Y120326D01*
X233370Y120388D01*
X233459Y120477D01*
X233565Y120575D01*
X233680Y120690D01*
X233805Y120814D01*
X233946Y120947D01*
X234221Y121222D01*
X234363Y121363D01*
X234487Y121496D01*
X234611Y121629D01*
X234709Y121754D01*
X234797Y121860D01*
X234868Y121948D01*
X234877Y121957D01*
X234886Y121975D01*
X234904Y122011D01*
X234930Y122055D01*
X234966Y122108D01*
X235001Y122170D01*
X235072Y122321D01*
X235143Y122507D01*
X235214Y122711D01*
X235258Y122924D01*
X235276Y123030D01*
Y123145D01*
Y123154D01*
Y123172D01*
Y123207D01*
X235267Y123252D01*
Y123305D01*
X235258Y123376D01*
X235232Y123518D01*
X235187Y123677D01*
X235125Y123846D01*
X235037Y124014D01*
X234922Y124156D01*
X234904Y124173D01*
X234860Y124209D01*
X234780Y124271D01*
X234664Y124333D01*
X234531Y124395D01*
X234363Y124457D01*
X234168Y124493D01*
X233946Y124510D01*
X233884D01*
X233849Y124501D01*
X233796D01*
X233734Y124493D01*
X233592Y124466D01*
X233441Y124422D01*
X233282Y124351D01*
X233122Y124262D01*
X232971Y124138D01*
X232954Y124120D01*
X232936Y124103D01*
X232918Y124067D01*
X232883Y124023D01*
X232856Y123979D01*
X232821Y123917D01*
X232785Y123846D01*
X232750Y123766D01*
X232714Y123677D01*
X232679Y123580D01*
X232643Y123464D01*
X232617Y123340D01*
X232590Y123216D01*
X232572Y123066D01*
X232555Y122915D01*
X230604Y123110D01*
Y123119D01*
Y123127D01*
X230613Y123181D01*
X230622Y123260D01*
X230649Y123376D01*
X230675Y123509D01*
X230711Y123659D01*
X230746Y123828D01*
X230808Y124005D01*
X230870Y124191D01*
X230941Y124386D01*
X231030Y124572D01*
X231136Y124768D01*
X231252Y124954D01*
X231385Y125122D01*
X231535Y125282D01*
X231695Y125423D01*
X231704Y125432D01*
X231739Y125450D01*
X231792Y125485D01*
X231863Y125539D01*
X231952Y125592D01*
X232058Y125645D01*
X232182Y125716D01*
X232333Y125778D01*
X232484Y125840D01*
X232661Y125911D01*
X232856Y125964D01*
X233060Y126026D01*
X233273Y126071D01*
X233503Y126106D01*
X233743Y126124D01*
X234000Y126133D01*
X234071D01*
X234142Y126124D01*
D02*
G37*
G36*
X225499Y126079D02*
X225649Y126071D01*
X225818Y126062D01*
X226004Y126053D01*
X226394Y126017D01*
X226793Y125973D01*
X226979Y125938D01*
X227156Y125902D01*
X227325Y125858D01*
X227475Y125805D01*
X227484D01*
X227511Y125796D01*
X227546Y125778D01*
X227599Y125751D01*
X227661Y125716D01*
X227732Y125681D01*
X227901Y125583D01*
X228096Y125441D01*
X228193Y125361D01*
X228291Y125273D01*
X228388Y125175D01*
X228486Y125069D01*
X228575Y124945D01*
X228663Y124821D01*
X228672Y124812D01*
X228681Y124785D01*
X228708Y124750D01*
X228734Y124697D01*
X228769Y124635D01*
X228805Y124555D01*
X228849Y124457D01*
X228894Y124360D01*
X228929Y124244D01*
X228973Y124120D01*
X229009Y123987D01*
X229044Y123846D01*
X229097Y123544D01*
X229106Y123385D01*
X229115Y123216D01*
Y123207D01*
Y123163D01*
Y123101D01*
X229106Y123021D01*
X229097Y122924D01*
X229080Y122808D01*
X229062Y122684D01*
X229027Y122542D01*
X228991Y122401D01*
X228947Y122241D01*
X228894Y122090D01*
X228832Y121922D01*
X228752Y121762D01*
X228654Y121612D01*
X228557Y121452D01*
X228433Y121310D01*
X228424Y121301D01*
X228397Y121275D01*
X228362Y121239D01*
X228309Y121195D01*
X228238Y121133D01*
X228149Y121062D01*
X228043Y120991D01*
X227927Y120911D01*
X227794Y120832D01*
X227644Y120752D01*
X227484Y120672D01*
X227298Y120601D01*
X227103Y120530D01*
X226890Y120468D01*
X226660Y120415D01*
X226420Y120371D01*
X226429D01*
X226447Y120353D01*
X226483Y120335D01*
X226536Y120300D01*
X226589Y120264D01*
X226651Y120220D01*
X226810Y120114D01*
X226979Y119989D01*
X227165Y119848D01*
X227351Y119679D01*
X227520Y119511D01*
X227528Y119502D01*
X227537Y119493D01*
X227564Y119458D01*
X227599Y119422D01*
X227644Y119369D01*
X227697Y119298D01*
X227759Y119227D01*
X227830Y119130D01*
X227910Y119023D01*
X227998Y118908D01*
X228096Y118766D01*
X228202Y118615D01*
X228317Y118447D01*
X228433Y118270D01*
X228566Y118066D01*
X228699Y117853D01*
X229949Y115867D01*
X227475D01*
X225986Y118092D01*
X225977Y118110D01*
X225951Y118146D01*
X225915Y118208D01*
X225853Y118287D01*
X225791Y118376D01*
X225720Y118483D01*
X225640Y118598D01*
X225552Y118722D01*
X225366Y118979D01*
X225188Y119227D01*
X225108Y119333D01*
X225029Y119440D01*
X224958Y119520D01*
X224896Y119591D01*
X224887Y119608D01*
X224842Y119644D01*
X224789Y119697D01*
X224709Y119759D01*
X224612Y119830D01*
X224515Y119901D01*
X224399Y119963D01*
X224275Y120016D01*
X224257Y120025D01*
X224213Y120034D01*
X224133Y120051D01*
X224027Y120078D01*
X223876Y120096D01*
X223699Y120114D01*
X223486Y120122D01*
X223371Y120131D01*
X222821D01*
Y115867D01*
X220756D01*
Y126088D01*
X225357D01*
X225499Y126079D01*
D02*
G37*
%LPC*%
G36*
X173944Y75422D02*
Y72065D01*
X173936Y72223D01*
X173920Y72381D01*
X173903Y72523D01*
X173886Y72664D01*
X173861Y72790D01*
X173836Y72906D01*
X173811Y73006D01*
X173795Y73106D01*
X173770Y73189D01*
X173745Y73256D01*
X173728Y73314D01*
X173711Y73364D01*
X173695Y73398D01*
X173686Y73414D01*
Y73423D01*
X173578Y73639D01*
X173453Y73831D01*
X173320Y74006D01*
X173186Y74156D01*
X173078Y74272D01*
X173028Y74322D01*
X172978Y74364D01*
X172945Y74397D01*
X172920Y74422D01*
X172903Y74431D01*
X172895Y74439D01*
X172795Y74514D01*
X172687Y74589D01*
X172453Y74731D01*
X172212Y74847D01*
X171987Y74947D01*
X171878Y74989D01*
X171778Y75031D01*
X171695Y75064D01*
X171620Y75089D01*
X171553Y75114D01*
X171512Y75131D01*
X171479Y75139D01*
X171470D01*
X171120Y75230D01*
X170762Y75306D01*
X170404Y75356D01*
X170237Y75372D01*
X170070Y75389D01*
X169921Y75397D01*
X169787Y75406D01*
X169662Y75414D01*
X169554Y75422D01*
X173944D01*
X169104D01*
X168862Y75414D01*
X168638Y75397D01*
X168429Y75381D01*
X168229Y75364D01*
X168038Y75339D01*
X167871Y75314D01*
X167713Y75289D01*
X167571Y75264D01*
X167446Y75239D01*
X167338Y75214D01*
X167255Y75197D01*
X167180Y75181D01*
X167130Y75164D01*
X167096Y75156D01*
X167088D01*
X166921Y75106D01*
X166763Y75047D01*
X166613Y74989D01*
X166471Y74931D01*
X166346Y74872D01*
X166222Y74814D01*
X166113Y74756D01*
X166013Y74697D01*
X165922Y74639D01*
X165838Y74589D01*
X165772Y74547D01*
X165713Y74506D01*
X165672Y74472D01*
X165638Y74447D01*
X165622Y74439D01*
X165613Y74431D01*
X165413Y74256D01*
X165247Y74081D01*
X165105Y73914D01*
X164988Y73756D01*
X164905Y73623D01*
X164872Y73564D01*
X164847Y73514D01*
X164822Y73473D01*
X164805Y73448D01*
X164797Y73431D01*
Y73423D01*
X164755Y73314D01*
X164714Y73198D01*
X164655Y72940D01*
X164614Y72673D01*
X164589Y72415D01*
X164572Y72290D01*
X164564Y72173D01*
Y72073D01*
X164555Y71981D01*
Y68974D01*
X173944D01*
Y75422D01*
D02*
G37*
G36*
Y67349D02*
X164555D01*
Y61234D01*
X173944D01*
Y62684D01*
X167829D01*
X173944Y65783D01*
Y67349D01*
D02*
G37*
%LPD*%
G36*
X169637Y73814D02*
X169796Y73806D01*
X169954Y73798D01*
X170096Y73789D01*
X170229Y73781D01*
X170354Y73764D01*
X170462Y73756D01*
X170562Y73739D01*
X170645Y73723D01*
X170720Y73714D01*
X170787Y73706D01*
X170829Y73698D01*
X170870Y73689D01*
X170887Y73681D01*
X170895D01*
X171112Y73623D01*
X171295Y73564D01*
X171445Y73506D01*
X171570Y73448D01*
X171670Y73398D01*
X171737Y73356D01*
X171778Y73331D01*
X171795Y73323D01*
X171895Y73239D01*
X171978Y73148D01*
X172053Y73048D01*
X172112Y72964D01*
X172162Y72881D01*
X172195Y72823D01*
X172212Y72781D01*
X172220Y72765D01*
X172245Y72698D01*
X172262Y72623D01*
X172295Y72456D01*
X172320Y72273D01*
X172337Y72098D01*
X172345Y71940D01*
Y71865D01*
X172353Y71806D01*
Y70523D01*
X166147D01*
Y71548D01*
X166155Y71690D01*
X166163Y71815D01*
Y71931D01*
X166171Y72031D01*
X166180Y72123D01*
X166188Y72206D01*
X166196Y72273D01*
X166205Y72331D01*
X166213Y72381D01*
Y72423D01*
X166222Y72456D01*
X166230Y72473D01*
Y72490D01*
X166280Y72648D01*
X166346Y72790D01*
X166430Y72915D01*
X166505Y73023D01*
X166571Y73106D01*
X166630Y73173D01*
X166671Y73206D01*
X166688Y73223D01*
X166830Y73331D01*
X166980Y73423D01*
X167138Y73498D01*
X167288Y73564D01*
X167430Y73614D01*
X167488Y73631D01*
X167538Y73648D01*
X167579Y73656D01*
X167613Y73664D01*
X167630Y73673D01*
X167638D01*
X167754Y73698D01*
X167879Y73723D01*
X168146Y73756D01*
X168421Y73789D01*
X168679Y73806D01*
X168804Y73814D01*
X168921D01*
X169021D01*
X169104Y73823D01*
X169179D01*
X169229D01*
X169271D01*
X169279D01*
X169462D01*
X169637Y73814D01*
D02*
G37*
G36*
X164555Y62742D02*
Y65900D01*
X170829D01*
X164555Y62742D01*
D02*
G37*
%LPC*%
G36*
X153945Y75173D02*
X149104D01*
X148863Y75164D01*
X148638Y75148D01*
X148429Y75131D01*
X148229Y75114D01*
X148038Y75089D01*
X147871Y75064D01*
X147713Y75039D01*
X147571Y75014D01*
X147446Y74989D01*
X147338Y74964D01*
X147255Y74948D01*
X147180Y74931D01*
X147130Y74914D01*
X147096Y74906D01*
X147088D01*
X146921Y74856D01*
X146763Y74798D01*
X146613Y74739D01*
X146472Y74681D01*
X146347Y74623D01*
X146222Y74564D01*
X146113Y74506D01*
X146013Y74448D01*
X145922Y74389D01*
X145838Y74339D01*
X145772Y74298D01*
X145713Y74256D01*
X145672Y74223D01*
X145638Y74198D01*
X145622Y74189D01*
X145613Y74181D01*
X145414Y74006D01*
X145247Y73831D01*
X145105Y73665D01*
X144989Y73506D01*
X144905Y73373D01*
X144872Y73315D01*
X144847Y73265D01*
X144822Y73223D01*
X144805Y73198D01*
X144797Y73181D01*
Y73173D01*
X144755Y73065D01*
X144714Y72948D01*
X144655Y72690D01*
X144614Y72423D01*
X144589Y72165D01*
X144572Y72040D01*
X144564Y71923D01*
Y71823D01*
X144555Y71732D01*
Y75173D01*
D01*
D01*
Y68724D01*
X153945D01*
Y71815D01*
X153936Y71973D01*
X153920Y72132D01*
X153903Y72273D01*
X153886Y72415D01*
X153861Y72540D01*
X153836Y72656D01*
X153811Y72757D01*
X153795Y72856D01*
X153770Y72940D01*
X153745Y73006D01*
X153728Y73065D01*
X153711Y73115D01*
X153695Y73148D01*
X153686Y73165D01*
Y73173D01*
X153578Y73390D01*
X153453Y73581D01*
X153320Y73756D01*
X153187Y73906D01*
X153078Y74023D01*
X153028Y74073D01*
X152978Y74114D01*
X152945Y74148D01*
X152920Y74173D01*
X152903Y74181D01*
X152895Y74189D01*
X152795Y74264D01*
X152687Y74339D01*
X152453Y74481D01*
X152212Y74598D01*
X151987Y74698D01*
X151878Y74739D01*
X151778Y74781D01*
X151695Y74814D01*
X151620Y74839D01*
X151554Y74864D01*
X151512Y74881D01*
X151479Y74889D01*
X151470D01*
X151120Y74981D01*
X150762Y75056D01*
X150404Y75106D01*
X150237Y75122D01*
X150071Y75139D01*
X149921Y75148D01*
X149787Y75156D01*
X149662Y75164D01*
X149554Y75173D01*
X153945D01*
D02*
G37*
G36*
Y67100D02*
X144555D01*
Y60985D01*
X153945D01*
Y62434D01*
X147830D01*
X153945Y65533D01*
Y67100D01*
D02*
G37*
%LPD*%
G36*
X149637Y73565D02*
X149796Y73556D01*
X149954Y73548D01*
X150096Y73540D01*
X150229Y73531D01*
X150354Y73515D01*
X150462Y73506D01*
X150562Y73490D01*
X150646Y73473D01*
X150721Y73465D01*
X150787Y73456D01*
X150829Y73448D01*
X150870Y73440D01*
X150887Y73431D01*
X150895D01*
X151112Y73373D01*
X151295Y73315D01*
X151445Y73256D01*
X151570Y73198D01*
X151670Y73148D01*
X151737Y73106D01*
X151778Y73081D01*
X151795Y73073D01*
X151895Y72990D01*
X151979Y72898D01*
X152053Y72798D01*
X152112Y72715D01*
X152162Y72632D01*
X152195Y72573D01*
X152212Y72531D01*
X152220Y72515D01*
X152245Y72448D01*
X152262Y72373D01*
X152295Y72207D01*
X152320Y72023D01*
X152337Y71848D01*
X152345Y71690D01*
Y71615D01*
X152353Y71557D01*
Y70274D01*
X146147D01*
Y71298D01*
X146155Y71440D01*
X146163Y71565D01*
Y71682D01*
X146172Y71782D01*
X146180Y71873D01*
X146188Y71957D01*
X146197Y72023D01*
X146205Y72082D01*
X146213Y72132D01*
Y72173D01*
X146222Y72207D01*
X146230Y72223D01*
Y72240D01*
X146280Y72398D01*
X146347Y72540D01*
X146430Y72665D01*
X146505Y72773D01*
X146572Y72856D01*
X146630Y72923D01*
X146671Y72956D01*
X146688Y72973D01*
X146830Y73081D01*
X146980Y73173D01*
X147138Y73248D01*
X147288Y73315D01*
X147430Y73365D01*
X147488Y73381D01*
X147538Y73398D01*
X147580Y73406D01*
X147613Y73415D01*
X147630Y73423D01*
X147638D01*
X147754Y73448D01*
X147879Y73473D01*
X148146Y73506D01*
X148421Y73540D01*
X148679Y73556D01*
X148804Y73565D01*
X148921D01*
X149021D01*
X149104Y73573D01*
X149179D01*
X149229D01*
X149271D01*
X149279D01*
X149462D01*
X149637Y73565D01*
D02*
G37*
G36*
X144555Y62492D02*
Y65650D01*
X150829D01*
X144555Y62492D01*
D02*
G37*
%LPC*%
G36*
X193945Y75173D02*
Y71815D01*
X193936Y71973D01*
X193920Y72132D01*
X193903Y72273D01*
X193886Y72415D01*
X193861Y72540D01*
X193836Y72656D01*
X193811Y72757D01*
X193795Y72856D01*
X193770Y72940D01*
X193745Y73006D01*
X193728Y73065D01*
X193711Y73115D01*
X193695Y73148D01*
X193686Y73165D01*
Y73173D01*
X193578Y73390D01*
X193453Y73581D01*
X193320Y73756D01*
X193186Y73906D01*
X193078Y74023D01*
X193028Y74073D01*
X192978Y74114D01*
X192945Y74148D01*
X192920Y74173D01*
X192903Y74181D01*
X192895Y74190D01*
X192795Y74264D01*
X192687Y74339D01*
X192453Y74481D01*
X192212Y74598D01*
X191987Y74698D01*
X191879Y74739D01*
X191779Y74781D01*
X191695Y74814D01*
X191620Y74839D01*
X191553Y74864D01*
X191512Y74881D01*
X191479Y74889D01*
X191470D01*
X191120Y74981D01*
X190762Y75056D01*
X190404Y75106D01*
X190237Y75123D01*
X190071Y75139D01*
X189921Y75148D01*
X189787Y75156D01*
X189662Y75164D01*
X189554Y75173D01*
X193945D01*
X189104D01*
X188863Y75164D01*
X188638Y75148D01*
X188429Y75131D01*
X188229Y75114D01*
X188038Y75089D01*
X187871Y75064D01*
X187713Y75039D01*
X187571Y75014D01*
X187446Y74989D01*
X187338Y74964D01*
X187255Y74948D01*
X187180Y74931D01*
X187130Y74914D01*
X187096Y74906D01*
X187088D01*
X186921Y74856D01*
X186763Y74798D01*
X186613Y74739D01*
X186472Y74681D01*
X186346Y74623D01*
X186222Y74564D01*
X186113Y74506D01*
X186013Y74448D01*
X185922Y74389D01*
X185838Y74339D01*
X185772Y74298D01*
X185713Y74256D01*
X185672Y74223D01*
X185638Y74198D01*
X185622Y74190D01*
X185613Y74181D01*
X185413Y74006D01*
X185247Y73831D01*
X185105Y73665D01*
X184989Y73506D01*
X184905Y73373D01*
X184872Y73315D01*
X184847Y73265D01*
X184822Y73223D01*
X184805Y73198D01*
X184797Y73181D01*
Y73173D01*
X184755Y73065D01*
X184714Y72948D01*
X184655Y72690D01*
X184614Y72423D01*
X184589Y72165D01*
X184572Y72040D01*
X184564Y71923D01*
Y71823D01*
X184555Y71732D01*
Y68724D01*
X193945D01*
Y75173D01*
D02*
G37*
G36*
Y67100D02*
X184555D01*
Y60985D01*
X193945D01*
Y62434D01*
X187829D01*
X193945Y65533D01*
Y67100D01*
D02*
G37*
%LPD*%
G36*
X189637Y73565D02*
X189796Y73556D01*
X189954Y73548D01*
X190096Y73540D01*
X190229Y73531D01*
X190354Y73515D01*
X190462Y73506D01*
X190562Y73490D01*
X190645Y73473D01*
X190720Y73465D01*
X190787Y73456D01*
X190829Y73448D01*
X190870Y73440D01*
X190887Y73431D01*
X190895D01*
X191112Y73373D01*
X191295Y73315D01*
X191445Y73256D01*
X191570Y73198D01*
X191670Y73148D01*
X191737Y73106D01*
X191779Y73081D01*
X191795Y73073D01*
X191895Y72990D01*
X191978Y72898D01*
X192053Y72798D01*
X192112Y72715D01*
X192162Y72632D01*
X192195Y72573D01*
X192212Y72532D01*
X192220Y72515D01*
X192245Y72448D01*
X192262Y72373D01*
X192295Y72207D01*
X192320Y72023D01*
X192337Y71848D01*
X192345Y71690D01*
Y71615D01*
X192353Y71557D01*
Y70274D01*
X186147D01*
Y71298D01*
X186155Y71440D01*
X186163Y71565D01*
Y71682D01*
X186172Y71782D01*
X186180Y71873D01*
X186188Y71957D01*
X186197Y72023D01*
X186205Y72082D01*
X186213Y72132D01*
Y72173D01*
X186222Y72207D01*
X186230Y72223D01*
Y72240D01*
X186280Y72398D01*
X186346Y72540D01*
X186430Y72665D01*
X186505Y72773D01*
X186572Y72856D01*
X186630Y72923D01*
X186672Y72956D01*
X186688Y72973D01*
X186830Y73081D01*
X186980Y73173D01*
X187138Y73248D01*
X187288Y73315D01*
X187430Y73365D01*
X187488Y73381D01*
X187538Y73398D01*
X187580Y73406D01*
X187613Y73415D01*
X187630Y73423D01*
X187638D01*
X187754Y73448D01*
X187880Y73473D01*
X188146Y73506D01*
X188421Y73540D01*
X188679Y73556D01*
X188804Y73565D01*
X188921D01*
X189021D01*
X189104Y73573D01*
X189179D01*
X189229D01*
X189271D01*
X189279D01*
X189462D01*
X189637Y73565D01*
D02*
G37*
G36*
X184555Y62492D02*
Y65650D01*
X190829D01*
X184555Y62492D01*
D02*
G37*
%LPC*%
G36*
X235354Y65284D02*
X233687D01*
Y62749D01*
X235186D01*
X235283Y62758D01*
X235513D01*
X235753Y62776D01*
X235992Y62793D01*
X236099Y62802D01*
X236187Y62811D01*
X236276Y62829D01*
X236338Y62847D01*
X236356Y62855D01*
X236391Y62864D01*
X236444Y62891D01*
X236515Y62935D01*
X236595Y62988D01*
X236684Y63050D01*
X236763Y63139D01*
X236843Y63237D01*
X236852Y63254D01*
X236870Y63290D01*
X236905Y63361D01*
X236941Y63449D01*
X236976Y63565D01*
X237012Y63706D01*
X237029Y63866D01*
X237038Y64043D01*
Y64052D01*
Y64061D01*
Y64088D01*
Y64123D01*
X237029Y64212D01*
X237012Y64318D01*
X236994Y64433D01*
X236958Y64566D01*
X236905Y64690D01*
X236843Y64806D01*
X236834Y64815D01*
X236808Y64850D01*
X236763Y64903D01*
X236701Y64965D01*
X236630Y65036D01*
X236542Y65098D01*
X236435Y65160D01*
X236320Y65205D01*
X236311D01*
X236294Y65213D01*
X236267D01*
X236231Y65222D01*
X236187Y65231D01*
X236134Y65240D01*
X236063Y65249D01*
X235983D01*
X235895Y65258D01*
X235779Y65267D01*
X235655Y65276D01*
X235513D01*
X235354Y65284D01*
D02*
G37*
G36*
X103975Y124448D02*
X101768D01*
Y121851D01*
X103647D01*
X103780Y121860D01*
X103922D01*
X104082Y121869D01*
X104392Y121878D01*
X104552Y121895D01*
X104693Y121904D01*
X104835Y121922D01*
X104951Y121931D01*
X105057Y121957D01*
X105137Y121975D01*
X105154Y121984D01*
X105199Y122002D01*
X105270Y122028D01*
X105350Y122073D01*
X105447Y122135D01*
X105545Y122206D01*
X105633Y122294D01*
X105722Y122401D01*
X105731Y122418D01*
X105757Y122454D01*
X105793Y122525D01*
X105828Y122613D01*
X105864Y122729D01*
X105899Y122862D01*
X105926Y123003D01*
X105935Y123172D01*
Y123181D01*
Y123198D01*
Y123225D01*
Y123260D01*
X105917Y123349D01*
X105899Y123473D01*
X105864Y123597D01*
X105819Y123739D01*
X105748Y123881D01*
X105651Y124005D01*
X105642Y124023D01*
X105598Y124058D01*
X105536Y124111D01*
X105456Y124173D01*
X105341Y124244D01*
X105208Y124315D01*
X105057Y124369D01*
X104880Y124413D01*
X104853D01*
X104818Y124422D01*
X104738D01*
X104676Y124431D01*
X104507D01*
X104401Y124439D01*
X104144D01*
X103975Y124448D01*
D02*
G37*
G36*
X225029Y124360D02*
X222821D01*
Y121762D01*
X224701D01*
X224834Y121771D01*
X224975D01*
X225135Y121780D01*
X225445Y121789D01*
X225605Y121807D01*
X225747Y121816D01*
X225889Y121833D01*
X226004Y121842D01*
X226110Y121869D01*
X226190Y121887D01*
X226208Y121895D01*
X226252Y121913D01*
X226323Y121940D01*
X226403Y121984D01*
X226500Y122046D01*
X226598Y122117D01*
X226686Y122206D01*
X226775Y122312D01*
X226784Y122330D01*
X226810Y122365D01*
X226846Y122436D01*
X226881Y122525D01*
X226917Y122640D01*
X226952Y122773D01*
X226979Y122915D01*
X226988Y123083D01*
Y123092D01*
Y123110D01*
Y123136D01*
Y123172D01*
X226970Y123260D01*
X226952Y123385D01*
X226917Y123509D01*
X226873Y123651D01*
X226802Y123792D01*
X226704Y123917D01*
X226695Y123934D01*
X226651Y123970D01*
X226589Y124023D01*
X226509Y124085D01*
X226394Y124156D01*
X226261Y124227D01*
X226110Y124280D01*
X225933Y124324D01*
X225906D01*
X225871Y124333D01*
X225791D01*
X225729Y124342D01*
X225560D01*
X225454Y124351D01*
X225197D01*
X225029Y124360D01*
D02*
G37*
%LPD*%
D10*
X230700Y70200D02*
X245300D01*
X230700Y96800D02*
X245300D01*
Y70200D02*
Y96800D01*
X230700Y70200D02*
Y96800D01*
X120450Y128550D02*
X147050D01*
X120450Y113950D02*
X147050D01*
Y128550D01*
X120450Y113950D02*
Y128550D01*
X190450Y113950D02*
X217050D01*
X190450Y128550D02*
X217050D01*
X190450Y113950D02*
Y128550D01*
X217050Y113950D02*
Y128550D01*
M02*
